<?xml version="1.0" encoding="utf-8"?>
<svg version="1.1" xmlns:xlink="http://www.w3.org/1999/xlink" width="132px" height="75px" xmlns="http://www.w3.org/2000/svg">
  <g transform="matrix(1 0 0 1 -15 -15 )">
    <path d="M 15 15  L 147 15  L 147 90  L 15 90  L 15 15  " fill-rule="nonzero" fill="#cccccc" stroke="none" />
    <path d="M 20 20  L 142 20  L 142 85  L 20 85  L 20 20  " fill-rule="nonzero" fill="#ffffff" stroke="none" />
    <path d="M 89.265 37.5  C 86.115 37.5  83.64 35.025  83.64 31.875  C 83.64 28.725  86.115 26.25  89.265 26.25  C 92.415 26.25  94.89 28.725  94.89 31.875  C 94.89 35.025  92.415 37.5  89.265 37.5  " fill-rule="nonzero" fill="#cccccc" stroke="none" />
    <path d="M 22 83  L 22 49.45  L 51.5 34.2  L 92.8 62.2045454545455  L 116.4 43.35  L 140 62.2045454545455  L 140 83  L 22 83  " fill-rule="nonzero" fill="#169bd5" stroke="none" />
  </g>
</svg>