<?xml version="1.0" encoding="utf-8"?>
<svg version="1.1" xmlns:xlink="http://www.w3.org/1999/xlink" width="94px" height="53px" xmlns="http://www.w3.org/2000/svg">
  <g transform="matrix(1 0 0 1 -2 -1392 )">
    <path d="M 1.744140625 1.74826388888889  C 0.581380208333326 2.91377314814814  0 4.29398148148147  0 5.88888888888889  C 0 7.48379629629629  0.581380208333326 8.86400462962962  1.744140625 10.0295138888889  L 42.869140625 51.2517361111111  C 44.0319010416667 52.4172453703704  45.4088541666667 53  47 53  C 48.5911458333333 53  49.9680989583333 52.4172453703704  51.130859375 51.2517361111111  L 92.255859375 10.0295138888889  C 93.4186197916667 8.86400462962962  94 7.48379629629629  94 5.88888888888889  C 94 4.29398148148147  93.4186197916667 2.91377314814814  92.255859375 1.74826388888889  C 91.0930989583333 0.582754629629623  89.7161458333333 0  88.125 0  L 5.875 0  C 4.28385416666666 0  2.90690104166666 0.582754629629623  1.744140625 1.74826388888889  Z " fill-rule="nonzero" fill="#000000" stroke="none" transform="matrix(1 0 0 1 2 1392 )" />
  </g>
</svg>