<?xml version="1.0" encoding="utf-8"?>
<svg version="1.1" xmlns:xlink="http://www.w3.org/1999/xlink" width="194px" height="194px" xmlns="http://www.w3.org/2000/svg">
  <defs>
    <mask fill="white" id="clip1">
      <path d="M 201 206  C 147.165 206  104 162.835  104 109  L 104 109  C 104 55.165  147.165 12  201 12  L 201 12  C 254.835 12  298 55.165  298 109  L 298 109  C 298 162.835  254.835 206  201 206  " fill-rule="evenodd" />
    </mask>
  </defs>
  <g transform="matrix(1 0 0 1 -104 -12 )">
    <path d="M 104 12  L 298 12  L 298 206  L 104 206  L 104 12  " fill-rule="nonzero" fill="#cccccc" stroke="none" mask="url(#clip1)" />
    <path d="M 118 26  L 284 26  L 284 192  L 118 192  L 118 26  " fill-rule="nonzero" fill="#ffffff" stroke="none" mask="url(#clip1)" />
    <path d="M 219.43 70.2  C 211.282 70.2  204.88 63.798  204.88 55.65  C 204.88 47.502  211.282 41.1  219.43 41.1  C 227.578 41.1  233.98 47.502  233.98 55.65  C 233.98 63.798  227.578 70.2  219.43 70.2  " fill-rule="nonzero" fill="#cccccc" stroke="none" mask="url(#clip1)" />
    <path d="M 123 187  L 123 101.2  L 162 62.2  L 216.6 93.4  L 247.8 85.6  L 279 93.4  L 279 187  L 123 187  " fill-rule="nonzero" fill="#169bd5" stroke="none" mask="url(#clip1)" />
  </g>
</svg>