<?xml version="1.0" encoding="utf-8"?>
<svg version="1.1" xmlns:xlink="http://www.w3.org/1999/xlink" width="49px" height="49px" xmlns="http://www.w3.org/2000/svg">
  <defs>
    <mask fill="white" id="clip3">
      <path d="M 50.5 52  C 36.9025 52  26 41.0975  26 27.5  L 26 27.5  C 26 13.9025  36.9025 3  50.5 3  L 50.5 3  C 64.0975 3  75 13.9025  75 27.5  L 75 27.5  C 75 41.0975  64.0975 52  50.5 52  " fill-rule="evenodd" />
    </mask>
  </defs>
  <g transform="matrix(1 0 0 1 -26 -3 )">
    <path d="M 26 3  L 75 3  L 75 52  L 26 52  L 26 3  " fill-rule="nonzero" fill="#cccccc" stroke="none" mask="url(#clip3)" />
    <path d="M 29 6  L 72 6  L 72 49  L 29 49  L 29 6  " fill-rule="nonzero" fill="#ffffff" stroke="none" mask="url(#clip3)" />
    <path d="M 55.155 17.7  C 53.097 17.7  51.48 16.083  51.48 14.025  C 51.48 11.967  53.097 10.35  55.155 10.35  C 57.213 10.35  58.83 11.967  58.83 14.025  C 58.83 16.083  57.213 17.7  55.155 17.7  " fill-rule="nonzero" fill="#cccccc" stroke="none" mask="url(#clip3)" />
    <path d="M 30 48  L 30 25.45  L 40.25 15.2  L 54.6 23.4  L 62.8 21.35  L 71 23.4  L 71 48  L 30 48  " fill-rule="nonzero" fill="#169bd5" stroke="none" mask="url(#clip3)" />
  </g>
</svg>